<svg version="1.1" id="Layer_1" xmlns="http://www.w3.org/2000/svg" x="0" y="0" viewBox="0 0 323 98" style="enable-background:new 0 0 323 98" xml:space="preserve"><style>.st0{fill:#fff}</style><path class="st0" d="M15.5 17.1h9v53.4h-9V17.1zM43.1 68.5c-3-1.6-5.6-4-7.3-7-1.8-3.1-2.7-6.6-2.6-10.2-.1-3.6.8-7.1 2.6-10.1 1.7-3 4.3-5.4 7.3-7 3.2-1.7 6.9-2.6 10.5-2.5 3.7-.1 7.3.8 10.6 2.5 3 1.6 5.6 4 7.3 7 1.8 3.1 2.7 6.6 2.6 10.1.1 3.6-.9 7.1-2.6 10.2-1.7 3-4.3 5.4-7.3 7-3.3 1.7-6.9 2.6-10.6 2.6-3.7 0-7.3-.9-10.5-2.6zM61.8 60c2.2-2.3 3.4-5.5 3.2-8.7.1-3.2-1-6.4-3.2-8.7-2.1-2.2-5.1-3.4-8.2-3.3-3.1-.1-6 1.1-8.2 3.3-2.2 2.4-3.4 5.5-3.2 8.7-.1 3.2 1 6.4 3.2 8.7 2.1 2.2 5.1 3.4 8.2 3.3 3.1.1 6.1-1.1 8.2-3.3zM120.9 32v32.7c0 13.6-6.9 20.3-20.7 20.3-3.6 0-7.1-.5-10.5-1.4-3-.8-5.8-2.2-8.2-4.1l4-6.8c1.9 1.5 4.1 2.6 6.4 3.3 2.5.8 5.2 1.3 7.8 1.3 4.2 0 7.3-1 9.3-2.9 2-1.9 3-4.8 3-8.8v-2c-1.6 1.7-3.5 3-5.6 3.8-2.3.9-4.8 1.3-7.3 1.2-3.4 0-6.8-.8-9.9-2.3-2.9-1.5-5.3-3.8-7-6.6-1.7-2.9-2.6-6.3-2.6-9.7-.1-3.4.8-6.8 2.6-9.7 1.7-2.8 4.1-5 7-6.5 3.1-1.6 6.5-2.4 9.9-2.3 2.6 0 5.2.4 7.6 1.4 2.2.9 4.2 2.3 5.7 4.2V32h8.5zm-12.1 26c2.2-2.1 3.4-5 3.3-8 .1-3-1.1-5.8-3.3-7.8-4.9-4-11.9-4-16.8 0-2.2 2-3.4 4.9-3.3 7.8-.1 3 1.1 5.9 3.3 8 4.8 4.1 11.9 4.1 16.8 0zM139.5 68.5c-3-1.6-5.6-4-7.3-7-1.8-3.1-2.7-6.6-2.6-10.2-.1-3.6.8-7.1 2.6-10.1 1.7-3 4.3-5.4 7.3-7 6.6-3.4 14.5-3.4 21.1 0 3 1.6 5.6 4 7.3 7 1.8 3.1 2.7 6.6 2.6 10.2.1 3.6-.8 7.1-2.6 10.2-1.7 3-4.3 5.4-7.3 7-6.6 3.2-14.5 3.2-21.1-.1zm18.7-8.5c2.2-2.3 3.4-5.5 3.2-8.7.1-3.2-1-6.4-3.2-8.7-4.6-4.4-11.8-4.4-16.4 0-2.2 2.4-3.3 5.5-3.2 8.7-.1 3.2 1 6.4 3.2 8.7 4.6 4.4 11.9 4.4 16.4 0zM177.2 69.3c-1.2-1.1-1.8-2.7-1.7-4.3.1-3.2 2.8-5.8 6-5.7 3.2.1 5.8 2.8 5.7 6-.1 3.2-2.8 5.8-6 5.7-1.6-.1-3-.7-4-1.7zM198.8 69.8c-2.5-.6-4.9-1.7-7.1-3.1l3.4-6.8c1.9 1.2 4 2.2 6.2 2.8 2.3.7 4.7 1 7.2 1 5.4 0 8.1-1.4 8.1-4.2 0-1.3-.8-2.4-2-2.8-2.1-.7-4.4-1.2-6.6-1.5-2.6-.4-5.2-.9-7.7-1.7-2-.6-3.8-1.7-5.2-3.2-1.6-1.8-2.3-4.1-2.2-6.5-.1-3.5 1.6-6.8 4.6-8.8 3.1-2.2 7.2-3.3 12.4-3.3 2.7 0 5.3.3 7.9.9 2.3.5 4.5 1.3 6.5 2.4l-3.5 6.8c-3.3-1.9-7.1-2.9-11-2.9-2.1-.1-4.1.3-6 1.2-1.2.6-2 1.8-2.1 3.1 0 1.4.9 2.6 2.2 3.1 2.2.8 4.5 1.4 6.8 1.7 2.6.4 5.1.9 7.6 1.7 1.9.6 3.7 1.7 5.1 3.2 1.5 1.8 2.3 4 2.1 6.3.1 3.5-1.7 6.8-4.7 8.6-3.1 2.2-7.4 3.2-12.8 3.2-3.2 0-6.3-.4-9.2-1.2zM268.4 32l-16.5 38.5h-9.3L226.1 32h9.4l12 28.5L259.7 32h8.7zM311.1 32v32.7c0 13.6-6.9 20.3-20.7 20.3-3.6 0-7.1-.5-10.5-1.4-3-.8-5.8-2.2-8.2-4.1l4-6.8c1.9 1.5 4.1 2.6 6.4 3.3 2.5.8 5.2 1.3 7.8 1.3 4.2 0 7.3-1 9.3-2.9 2-1.9 3-4.8 3-8.8v-2c-1.6 1.7-3.5 3-5.6 3.8-2.3.9-4.8 1.3-7.3 1.3-3.4 0-6.8-.8-9.9-2.3-2.9-1.5-5.3-3.8-7-6.6-1.7-2.9-2.6-6.3-2.5-9.7-.1-3.4.8-6.8 2.5-9.7 1.7-2.8 4.1-5 7-6.5 3.1-1.6 6.5-2.4 9.9-2.3 2.6 0 5.2.4 7.6 1.4 2.2.9 4.2 2.3 5.7 4.2V32h8.5zm-12.2 26c2.2-2.1 3.4-5 3.3-8 .1-3-1.1-5.8-3.3-7.8-4.9-4-11.9-4-16.8 0-2.2 2-3.4 4.9-3.3 7.8-.1 3 1.1 5.9 3.3 8 4.9 4.1 12 4.1 16.8 0z"/></svg>